<svg width="24" height="24" viewBox="0 0 24 24" fill="none" xmlns="http://www.w3.org/2000/svg">
<g id="vuesax/bulk/coin">
<g id="coin">
<path id="Vector" opacity="0.4" d="M9.99 17.98C14.4028 17.98 17.98 14.4028 17.98 9.99C17.98 5.57724 14.4028 2 9.99 2C5.57724 2 2 5.57724 2 9.99C2 14.4028 5.57724 17.98 9.99 17.98Z" fill="#34CAA5"/>
<path id="Vector_2" d="M21.9701 15.99C21.9701 19.29 19.2901 21.97 15.9901 21.97C13.9501 21.97 12.1601 20.95 11.0801 19.4C15.4401 18.91 18.9101 15.44 19.4001 11.08C20.9501 12.16 21.9701 13.95 21.9701 15.99Z" fill="#34CAA5"/>
<path id="Vector_3" d="M11.45 9.71003L9.05 8.87003C8.81 8.79003 8.76 8.77003 8.76 8.42003C8.76 8.16003 8.94 7.95003 9.17 7.95003H10.67C10.99 7.95003 11.25 8.24003 11.25 8.60003C11.25 9.01003 11.59 9.35003 12 9.35003C12.41 9.35003 12.75 9.01003 12.75 8.60003C12.75 7.45003 11.86 6.51003 10.75 6.46003V6.41003C10.75 6.00003 10.41 5.66003 10 5.66003C9.59 5.66003 9.25 5.99003 9.25 6.41003V6.46003H9.16C8.11 6.46003 7.25 7.34003 7.25 8.43003C7.25 9.38003 7.67 9.99003 8.54 10.29L10.95 11.13C11.19 11.21 11.24 11.23 11.24 11.58C11.24 11.84 11.06 12.05 10.83 12.05H9.33C9.01 12.05 8.75 11.76 8.75 11.4C8.75 10.99 8.41 10.65 8 10.65C7.59 10.65 7.25 10.99 7.25 11.4C7.25 12.55 8.14 13.49 9.25 13.54V13.6C9.25 14.01 9.59 14.35 10 14.35C10.41 14.35 10.75 14.01 10.75 13.6V13.55H10.84C11.89 13.55 12.75 12.67 12.75 11.58C12.75 10.63 12.32 10.02 11.45 9.71003Z" fill="#34CAA5"/>
</g>
</g>
</svg>
